<?xml version="1.0" encoding="UTF-8"?>
<svg id="Layer_2" data-name="Layer 2" xmlns="http://www.w3.org/2000/svg" viewBox="0 0 511 69.39">
  <defs>
    <style>
      .cls-1 {
        fill: #0092cc;
      }

      .cls-2 {
        fill: #ffcc32;
      }
    </style>
  </defs>
  <g id="Layer_1-2" data-name="Layer 1">
    <g>
      <path class="cls-2" d="m24.58,59.83v8.18H0v-8.18h8.27V9.11H0V1.02h17.47v58.81h7.11Z"/>
      <path class="cls-2" d="m80.28,46.99h-39.16c.56,4.48,2.3,8.01,5.2,10.6,2.9,2.59,6.46,3.89,10.67,3.89,3.08,0,5.94-.64,8.58-1.91,2.64-1.27,4.85-3.23,6.62-5.87l8.09,3.65c-2.55,3.97-5.89,6.97-10.02,9s-8.63,3.04-13.49,3.04-9.51-1.05-13.43-3.16c-3.91-2.1-6.96-5.04-9.14-8.8s-3.27-8-3.27-12.71,1.07-8.91,3.22-12.67c2.15-3.76,5.09-6.7,8.82-8.82,3.73-2.12,7.85-3.18,12.36-3.18,4.92,0,9.21,1.09,12.87,3.27,3.66,2.18,6.54,5.29,8.65,9.33,2.1,4.04,3.25,8.82,3.42,14.34Zm-24.76-19.29c-3.47,0-6.51,1.16-9.11,3.49-2.61,2.33-4.28,5.4-5.02,9.22h29.25c-.86-3.82-2.68-6.9-5.47-9.22-2.79-2.33-6-3.49-9.65-3.49Z"/>
      <path class="cls-2" d="m110.6,21.29v8.22h-8.54v24.5c0,2.55.27,4.2.82,4.96.55.76,1.49,1.13,2.82,1.13,1.63,0,3.26-.28,4.89-.84v8.31c-2.85.83-5.14,1.24-6.89,1.24-3.85,0-6.62-.97-8.31-2.91-1.69-1.94-2.53-5.27-2.53-9.98v-26.41h-6.09v-8.22h6.09v-7.07l9.2-8.4v15.47h8.54Z"/>
      <path class="cls-2" d="m140.3,21.29v8.22h-8.54v24.5c0,2.55.27,4.2.82,4.96.55.76,1.49,1.13,2.82,1.13,1.63,0,3.26-.28,4.89-.84v8.31c-2.85.83-5.14,1.24-6.89,1.24-3.85,0-6.62-.97-8.31-2.91-1.69-1.94-2.53-5.27-2.53-9.98v-26.41h-6.09v-8.22h6.09v-7.07l9.2-8.4v15.47h8.54Z"/>
      <path class="cls-2" d="m195.96,46.99h-39.16c.56,4.48,2.3,8.01,5.2,10.6,2.9,2.59,6.46,3.89,10.67,3.89,3.08,0,5.94-.64,8.58-1.91,2.64-1.27,4.85-3.23,6.62-5.87l8.09,3.65c-2.55,3.97-5.89,6.97-10.02,9s-8.63,3.04-13.49,3.04-9.51-1.05-13.43-3.16c-3.91-2.1-6.96-5.04-9.14-8.8s-3.27-8-3.27-12.71,1.07-8.91,3.22-12.67c2.15-3.76,5.09-6.7,8.82-8.82,3.73-2.12,7.85-3.18,12.36-3.18,4.92,0,9.21,1.09,12.87,3.27,3.66,2.18,6.54,5.29,8.65,9.33,2.1,4.04,3.25,8.82,3.42,14.34Zm-24.76-19.29c-3.47,0-6.51,1.16-9.11,3.49-2.61,2.33-4.28,5.4-5.02,9.22h29.25c-.86-3.82-2.68-6.9-5.47-9.22-2.79-2.33-6-3.49-9.65-3.49Z"/>
      <path class="cls-2" d="m219.92,49.25v10.58h10.18v8.18h-28.67v-8.18h9.38v-30.32h-9.38v-8.22h16.67v10.58c1.87-4.18,4.19-7.09,6.96-8.74,2.77-1.64,6.74-2.47,11.89-2.47h2.09v9.29h-2c-4.98,0-8.68.65-11.11,1.96s-4.04,3.27-4.82,5.91c-.79,2.64-1.18,6.45-1.18,11.42Z"/>
    </g>
    <g>
      <path class="cls-1" d="m257.52,29.52l8.85,28.14,8.89-28.14h-4.98v-8.22h22.45v8.22h-5.16l9.02,28.14,8.98-28.14h-6.45v-8.22h21.03v8.22h-6.76l-12.45,39.3h-8.67l-10.71-33.74-10.85,33.74h-8.58l-12.54-39.3h-5.65v-8.22h19.65v8.22h-6.09Z"/>
      <path class="cls-1" d="m347.5,59.83v8.18h-23.6v-8.18h7.29v-30.32h-7.29v-8.22h16.49v38.54h7.11Zm-6.58-54.28c0,1.51-.55,2.82-1.64,3.91-1.1,1.1-2.4,1.64-3.91,1.64s-2.8-.55-3.87-1.64c-1.07-1.1-1.6-2.4-1.6-3.91s.53-2.82,1.6-3.91c1.07-1.1,2.36-1.64,3.87-1.64s2.89.53,3.96,1.6c1.07,1.07,1.6,2.39,1.6,3.96Z"/>
      <path class="cls-1" d="m397.47,36.58v23.25h7.82v8.18h-17.03v-30.85c0-2.93-.42-5.04-1.27-6.31-.84-1.27-2.23-1.91-4.16-1.91-4.09,0-8.68,2.02-13.78,6.05v24.85h8.05v8.18h-25.34v-8.18h8.22v-30.32h-8.22v-8.22h17.29v5.65c5.72-4.18,11.1-6.27,16.14-6.27,4.18,0,7.27,1.29,9.27,3.87,2,2.58,3,6.59,3,12.05Z"/>
      <path class="cls-1" d="m467.66,59.83v8.18h-17.56v-6.85c-4.68,5.1-10.27,7.65-16.76,7.65-4.51,0-8.48-1.06-11.94-3.18-3.45-2.12-6.13-5-8.05-8.65-1.91-3.65-2.87-7.68-2.87-12.09s1.01-8.65,3.04-12.45c2.03-3.79,4.84-6.81,8.42-9.05s7.47-3.36,11.65-3.36c3.02,0,5.89.61,8.6,1.82,2.71,1.22,5.34,3.13,7.89,5.73V9.11h-9.02V1.02h18.14v58.81h8.45Zm-32.58.8c2.84,0,5.41-.75,7.69-2.27s4.07-3.53,5.38-6.05c1.3-2.52,1.96-5.22,1.96-8.09s-.65-5.56-1.96-7.96c-1.3-2.4-3.11-4.3-5.42-5.69-2.31-1.39-4.92-2.09-7.82-2.09s-5.33.75-7.54,2.24c-2.21,1.5-3.95,3.48-5.22,5.96-1.27,2.47-1.91,5.12-1.91,7.94,0,3.02.65,5.75,1.96,8.18,1.3,2.43,3.08,4.34,5.33,5.73,2.25,1.39,4.77,2.09,7.56,2.09Z"/>
      <path class="cls-1" d="m500.56,23.29v-2h8v15.51h-8v-2.84c-2.67-3.82-6.31-5.73-10.94-5.73-2.43,0-4.42.53-5.96,1.6-1.54,1.07-2.31,2.45-2.31,4.13,0,1.51.58,2.7,1.76,3.56,1.17.86,3.8,1.62,7.89,2.27l6.18,1.2c9.22,1.69,13.83,6.21,13.83,13.56,0,4.3-1.67,7.75-5,10.36-3.33,2.61-7.76,3.91-13.27,3.91-2.19,0-4.35-.32-6.47-.96-2.12-.64-3.89-1.43-5.31-2.38v2.53h-8.18v-16h8.18v1.6c.44,2.25,1.7,4.06,3.76,5.42s4.45,2.04,7.18,2.04c2.99,0,5.35-.53,7.07-1.58s2.58-2.62,2.58-4.69c0-1.51-.68-2.64-2.04-3.4s-4.1-1.53-8.22-2.33l-4.76-1.02c-4.71-.95-8.17-2.58-10.36-4.89-2.19-2.31-3.29-5.26-3.29-8.85,0-2.9.81-5.39,2.42-7.45,1.62-2.06,3.68-3.61,6.2-4.65,2.52-1.04,5.11-1.56,7.78-1.56,4.47,0,8.24.87,11.29,2.62Z"/>
    </g>
  </g>
</svg>