<?xml version="1.0" encoding="UTF-8"?><svg id="Layer_2" xmlns="http://www.w3.org/2000/svg" viewBox="0 0 11.81 11.81"><g id="Dibujo"><path d="M11.38,3.63c-.29-.71-.72-1.36-1.27-1.9-1.16-1.15-2.57-1.73-4.22-1.73S2.88.57,1.75,1.72c-.56.55-1,1.21-1.3,1.94C.15,4.38,0,5.13,0,5.91c0,.77.15,1.53.44,2.25.3.71.73,1.35,1.29,1.91.55.55,1.2.99,1.92,1.3.71.3,1.46.45,2.24.45.78,0,1.55-.15,2.27-.45.73-.3,1.4-.75,1.96-1.31.55-.53.98-1.17,1.26-1.87.28-.71.43-1.46.43-2.27s-.14-1.56-.43-2.27ZM9.37,9.29c-.46.45-1.01.82-1.61,1.07-.6.25-1.21.37-1.84.37s-1.25-.12-1.84-.36c-.59-.25-1.12-.6-1.57-1.06-.46-.45-.82-.98-1.07-1.57-.25-.59-.37-1.2-.37-1.83,0-.63.13-1.26.37-1.84.25-.59.62-1.13,1.07-1.59.92-.94,2.06-1.41,3.41-1.41s2.48.47,3.43,1.42c.45.45.8.98,1.04,1.56.24.58.36,1.2.36,1.86,0,1.36-.46,2.49-1.38,3.39Z"/><path d="M5.84,4.93l-.79.41c-.08-.18-.19-.3-.31-.37-.12-.07-.24-.11-.34-.11-.53,0-.79.35-.79,1.04,0,.32.07.57.2.76.13.19.33.29.59.29.34,0,.59-.17.73-.51l.73.37c-.15.28-.37.52-.64.68-.27.17-.58.25-.91.25-.53,0-.95-.16-1.28-.49-.32-.32-.49-.77-.49-1.35s.16-1.01.49-1.34c.33-.33.74-.5,1.24-.5.73,0,1.26.28,1.57.85h0Z"/><path d="M9.25,4.93l-.78.41c-.08-.18-.19-.3-.31-.37-.12-.07-.24-.11-.35-.11-.53,0-.79.35-.79,1.04,0,.32.07.57.2.76.13.19.33.29.59.29.34,0,.59-.17.73-.51l.74.37c-.15.28-.38.52-.65.68-.27.17-.57.25-.9.25-.53,0-.96-.16-1.28-.49-.32-.32-.48-.77-.48-1.35s.16-1.01.49-1.34c.33-.33.74-.5,1.24-.5.73,0,1.25.28,1.56.85h0Z"/></g></svg>