<?xml version="1.0" encoding="UTF-8"?><svg id="Layer_2" xmlns="http://www.w3.org/2000/svg" viewBox="0 0 11.81 11.81"><defs><style>.cls-1{fill-rule:evenodd;}</style></defs><g id="Dibujo"><path class="cls-1" d="M1.75,1.72C2.88.57,4.26,0,5.9,0s3.06.58,4.22,1.73c.55.54.98,1.19,1.27,1.91.29.71.43,1.47.43,2.27s-.14,1.57-.43,2.28c-.28.7-.7,1.32-1.26,1.87-.56.56-1.23,1-1.96,1.31-.72.3-1.49.45-2.27.45-.78,0-1.53-.15-2.25-.44-.71-.3-1.35-.74-1.92-1.3-.56-.57-.99-1.21-1.29-1.92C.15,7.44,0,6.68,0,5.91,0,5.13.15,4.38.44,3.66c.3-.73.75-1.39,1.31-1.94h0ZM9.35,2.49c-.95-.95-2.09-1.42-3.43-1.42s-2.49.47-3.41,1.41c-.46.46-.82,1-1.08,1.59-.25.58-.37,1.21-.37,1.84,0,.63.13,1.24.37,1.83.26.59.62,1.12,1.08,1.57.45.45.99.81,1.57,1.06.58.24,1.2.36,1.84.36s1.24-.12,1.83-.37c.6-.25,1.15-.61,1.61-1.07.92-.9,1.39-2.03,1.39-3.38,0-.65-.12-1.27-.36-1.86-.24-.59-.6-1.12-1.05-1.56h0ZM3.47,5.91c0-1.56.49-3.4,2.44-3.4s2.44,1.84,2.44,3.4-.49,3.4-2.44,3.4-2.44-1.84-2.44-3.4ZM6.13,3.82c-.07-.02-.15-.03-.22-.03-1,0-1.05,1.43-1.05,2.12,0,.22,0,.52.05.82l1.3-2.39c.13-.23.07-.4-.07-.52h0ZM6.96,5.91c0-.27,0-.65-.08-1.02l-1.45,2.51c-.2.3-.06.48.16.57.02,0,.04.01.06.02h.04c.07.03.14.04.22.04,1,0,1.05-1.43,1.05-2.12Z"/></g></svg>