<?xml version="1.0" encoding="UTF-8"?><svg id="Layer_2" xmlns="http://www.w3.org/2000/svg" viewBox="0 0 11.81 11.81"><g id="Dibujo"><path d="M11.38,3.63c-.29-.71-.72-1.36-1.27-1.9-1.16-1.15-2.57-1.73-4.22-1.73S2.88.57,1.75,1.72c-.56.55-1,1.21-1.3,1.94C.15,4.38,0,5.13,0,5.91c0,.77.15,1.53.44,2.25.3.71.73,1.35,1.29,1.91.55.55,1.2.99,1.92,1.3.71.3,1.46.45,2.24.45.78,0,1.55-.15,2.27-.45.73-.3,1.4-.75,1.96-1.31.55-.53.98-1.17,1.26-1.87.28-.71.43-1.46.43-2.27s-.14-1.56-.43-2.27ZM9.37,9.29c-.46.45-1.01.82-1.61,1.07-.6.25-1.21.37-1.84.37s-1.25-.12-1.84-.36c-.59-.25-1.12-.6-1.57-1.06-.46-.45-.82-.98-1.07-1.57-.25-.59-.37-1.2-.37-1.83,0-.63.13-1.26.37-1.84.25-.59.62-1.13,1.07-1.59.92-.94,2.06-1.41,3.41-1.41s2.48.47,3.43,1.42c.45.45.8.98,1.04,1.56.24.58.36,1.2.36,1.86,0,1.36-.46,2.49-1.38,3.39Z"/><circle cx="5.91" cy="2.8" r=".83"/><path d="M7.15,4.04h-2.49c-.23,0-.41.19-.41.41v2.49h.62v2.9h2.07v-2.9h.62v-2.49c0-.23-.19-.41-.41-.41Z"/></g></svg>