<?xml version="1.0" encoding="UTF-8"?><svg id="Layer_2" xmlns="http://www.w3.org/2000/svg" viewBox="0 0 11.81 11.81"><g id="Dibujo"><path d="M5.9,0c1.65,0,3.05.57,4.2,1.72,1.15,1.14,1.72,2.54,1.72,4.19s-.56,3.04-1.69,4.16c-1.19,1.17-2.6,1.75-4.23,1.75s-2.98-.58-4.16-1.74c-1.16-1.16-1.74-2.55-1.74-4.17S.58,2.9,1.74,1.72C2.89.57,4.27,0,5.9,0ZM5.92,1.07c-1.34,0-2.48.47-3.41,1.42-.96.98-1.45,2.12-1.45,3.42s.48,2.45,1.43,3.4c.96.96,2.1,1.43,3.42,1.43s2.46-.48,3.44-1.45c.93-.9,1.39-2.03,1.39-3.39s-.47-2.49-1.41-3.42c-.94-.95-2.07-1.42-3.42-1.42ZM8.14,4.51v1.01H3.85v-1.01h4.29,0ZM8.14,6.41v1.01H3.85v-1.01h4.29,0Z"/></g></svg>