<?xml version="1.0" encoding="UTF-8"?><svg id="Layer_2" xmlns="http://www.w3.org/2000/svg" viewBox="0 0 11.81 11.81"><g id="Dibujo"><path d="M5.9,0c1.66,0,3.06.57,4.2,1.71,1.15,1.14,1.72,2.54,1.72,4.2s-.56,3.04-1.69,4.15c-1.2,1.17-2.61,1.76-4.23,1.76s-2.99-.58-4.16-1.75c-1.16-1.16-1.74-2.55-1.74-4.16S.58,2.89,1.74,1.71C2.88.57,4.27,0,5.9,0ZM1.33,4.31c-.18.49-.26,1.02-.26,1.59,0,1.31.48,2.44,1.43,3.4.96.95,2.1,1.42,3.42,1.42s2.48-.48,3.44-1.45c.34-.33.61-.68.81-1.03l-2.23-.99c-.07.36-.27.69-.56.91-.3.24-.65.37-1.06.41v.91h-.69v-.91c-.65,0-1.25-.24-1.79-.71l.81-.82c.39.36.83.54,1.32.54.2,0,.38-.05.52-.14.14-.09.22-.24.22-.45,0-.15-.05-.27-.16-.36l-.57-.24-.7-.32-.94-.41s-3.02-1.35-3.02-1.35ZM5.92,1.05c-1.34,0-2.48.47-3.41,1.42-.23.23-.45.5-.65.79l2.26,1.01c.09-.3.29-.57.56-.74.27-.19.59-.29.96-.31v-.91h.69v.91c.54.03,1.03.21,1.48.55l-.77.79c-.33-.23-.67-.35-1.01-.35-.18,0-.35.04-.49.11-.14.07-.22.19-.22.36,0,.05.02.1.05.15l.75.34.52.23.95.42,3.03,1.35c.1-.42.15-.84.15-1.27,0-1.36-.47-2.5-1.41-3.43-.94-.95-2.08-1.42-3.42-1.42h0Z"/></g></svg>